<svg width="17" height="16" viewBox="0 0 17 16" fill="none" xmlns="http://www.w3.org/2000/svg">
<path d="M16.5312 3.0625C16.8125 3.34375 17 3.75 17 4.125V14.5312C17 15.3438 16.3125 16 15.4688 16H8V14.5312H15.5V5.53125H12.2188C11.8125 5.53125 11.4688 5.1875 11.4688 4.78125V1.53125H6.46875V4H5V1.53125C5 0.6875 5.65625 0.03125 6.46875 0H12.875C13.25 0 13.625 0.1875 13.9062 0.46875L16.5312 3.0625ZM12.9688 4.03125H15.375L12.9688 1.625V4.03125ZM8.71875 10.5938C8.25 11.0625 8.3125 10.9688 8.125 11.625C8.03125 11.9375 7.78125 12.1875 7.46875 12.2812C7.03125 12.4062 7.125 12.375 6.96875 12.4375V16L4.96875 15L2.96875 16V12.4375C2.84375 12.375 2.9375 12.4062 2.5 12.2812C2.1875 12.1875 1.9375 11.9375 1.84375 11.625C1.65625 10.9688 1.71875 11.0625 1.25 10.5938C1.03125 10.3438 0.9375 10 1 9.6875C1.1875 9.03125 1.1875 9.125 1 8.5C0.9375 8.15625 1.03125 7.8125 1.25 7.59375C1.71875 7.125 1.65625 7.1875 1.84375 6.5625C1.9375 6.21875 2.1875 5.96875 2.5 5.875C3.125 5.71875 3.03125 5.75 3.5 5.28125C3.75 5.0625 4.09375 4.96875 4.40625 5.0625C5.03125 5.21875 4.9375 5.21875 5.5625 5.0625C5.875 4.96875 6.21875 5.0625 6.46875 5.28125C6.9375 5.75 6.84375 5.71875 7.46875 5.875C7.78125 5.96875 8.03125 6.21875 8.125 6.5625C8.28125 7.1875 8.25 7.125 8.71875 7.59375C8.9375 7.8125 9.03125 8.15625 8.96875 8.5C8.78125 9.125 8.78125 9.03125 8.96875 9.6875C9.03125 10 8.9375 10.3438 8.71875 10.5938ZM5 11C6.09375 11 7 10.125 7 9C7 7.90625 6.09375 7 5 7C3.875 7 3 7.90625 3 9C3 10.125 3.875 11 5 11Z" fill="#ED1C24"/>
</svg>
