<svg width="101" height="100" viewBox="0 0 101 100" fill="none" xmlns="http://www.w3.org/2000/svg">
<g clip-path="url(#clip0_214_1042)">
<path d="M65.7845 27.8277C59.3676 20.4234 51.2149 17.5695 41.6684 19.6737C32.9635 21.5939 27.02 27.0255 23.9693 35.403C21.7076 41.5974 21.9574 47.7261 25.4157 53.4865C26.8622 55.9064 28.5059 58.2079 30.1232 60.5357C32.477 63.9288 34.3837 67.4666 33.8708 71.8066C33.8708 72.4248 33.8708 73.0297 33.8708 73.6479C33.8577 79.211 37.2108 84.156 42.3391 86.1024C47.5988 88.1015 53.3189 86.7074 57.0401 82.4594C59.1967 80.0132 60.2355 77.1199 60.3012 73.8583C60.3275 72.1486 60.2355 70.4257 60.3933 68.7423C60.6431 66.0594 61.9054 63.7316 63.3782 61.5221C64.9956 59.1022 66.6918 56.7349 68.2435 54.2624C70.0581 51.3691 71.2941 48.2258 71.4651 44.7801C71.7807 38.4016 69.9661 32.6675 65.7845 27.8277ZM52.8323 81.2626C49.808 83.6168 45.587 83.8798 42.2733 81.8808C38.7493 79.7502 37.2765 76.2124 37.7105 71.9118C43.9696 71.9118 50.1893 71.9118 56.3958 71.9118C56.9087 75.4628 55.9224 78.8427 52.8323 81.2626ZM66.7444 48.8571C65.7451 51.4874 64.1803 53.7758 62.5761 56.051C60.7746 58.6024 58.8679 61.1144 57.7371 64.0735C57.2505 65.3492 56.9218 66.6907 56.4879 68.0847C56.3564 68.0847 56.146 68.0847 55.9356 68.0847C50.0446 68.0847 44.1537 68.0716 38.2496 68.0979C37.7105 68.0979 37.5001 67.9927 37.408 67.414C36.9741 64.7311 35.8038 62.3243 34.3179 60.0754C32.7531 57.695 31.0831 55.3935 29.5052 53.0262C24.8635 46.0295 25.4289 39.0066 29.7419 32.1809C33.0819 26.894 38.0655 23.8822 44.2457 22.9748C54.2262 21.515 63.9568 27.8146 66.8496 37.573C67.9805 41.3344 68.1646 45.1089 66.7444 48.8571Z" fill="#ED1C24"/>
<path d="M45.5058 7.9336C45.5334 9.12029 46.375 9.99983 47.4788 9.99983C48.5963 10.0138 49.4518 9.16217 49.4794 7.96152C49.507 6.63523 49.507 5.32289 49.4794 3.99659C49.4518 2.85179 48.5963 2.01413 47.5202 2.00017C46.4026 1.98621 45.5472 2.83783 45.5196 4.02452C45.5058 4.68068 45.5196 5.32289 45.5196 5.97906C45.5058 6.63523 45.492 7.29139 45.5058 7.9336Z" fill="#ED1C24"/>
<path d="M35.681 9.71688C35.9706 10.6798 37.0462 11.1897 37.9563 10.9348C38.9768 10.6374 39.6801 9.68855 39.4594 8.72558C39.1285 7.2528 38.7424 5.79418 38.3287 4.36388C38.0804 3.5142 37.4185 3.10352 36.5635 3.00439C35.35 2.91942 34.2882 4.08065 34.5364 5.35518C34.8398 6.82796 35.2397 8.28658 35.681 9.71688Z" fill="#ED1C24"/>
<path d="M27.517 14.2345C27.9016 14.9278 28.6706 15.1502 29.3698 14.9016C30.0806 14.64 30.5001 13.9598 30.5001 12.9394C30.4768 12.8478 30.4535 12.547 30.3369 12.3115C29.7543 11.1342 29.1717 9.95685 28.5308 8.81877C28.0531 7.98156 27.0859 7.77226 26.3285 8.25627C25.5827 8.71412 25.2681 9.77371 25.6876 10.6763C26.2586 11.8798 26.8762 13.0702 27.517 14.2345Z" fill="#ED1C24"/>
<path d="M65.5597 15C66.0616 14.7069 66.7447 14.5158 67.0514 14.0953C67.8878 12.9611 68.6267 11.7506 69.3098 10.5272C69.7698 9.71169 69.3516 8.705 68.5291 8.259C67.6229 7.77477 66.4519 7.97865 65.8804 8.7942C65.0997 9.91558 64.3608 11.0752 63.7056 12.2603C63.0504 13.4326 64.0402 14.8471 65.5597 15Z" fill="#ED1C24"/>
<path d="M56.0415 10.9346C57.0099 11.2035 58.0475 10.6232 58.3656 9.56161C58.7253 8.34433 59.0435 7.1129 59.3617 5.89562C59.4309 5.62668 59.4724 5.3436 59.5001 5.20205C59.5001 4.05555 58.836 3.23459 57.8261 3.03643C56.8854 2.85242 55.9585 3.37613 55.6541 4.36694C55.2391 5.75407 54.8517 7.16952 54.5474 8.58496C54.3122 9.67485 54.9762 10.6515 56.0415 10.9346Z" fill="#ED1C24"/>
<path d="M53.2017 41.7331C50.8684 44.162 48.5606 46.6175 46.2146 49.033C45.7046 49.5534 45.4878 50.1406 45.5006 50.8746C45.5133 52.6762 45.5006 54.4778 45.5133 56.2794C45.5133 58.2145 45.5006 60.1496 45.5261 62.0846C45.5388 63.0722 46.2018 63.8329 47.0944 63.9797C47.9614 64.1131 48.8029 63.5793 49.0834 62.6852C49.1854 62.3515 49.1854 61.9912 49.1854 61.6309C49.1854 58.428 49.1981 55.2252 49.1726 52.0357C49.1726 51.5819 49.2874 51.2483 49.6061 50.928C51.6972 48.7794 53.7627 46.6041 55.8282 44.4289C56.6697 43.5347 56.7207 42.347 55.9812 41.573C55.2035 40.7589 54.0687 40.8123 53.2017 41.7331Z" fill="#ED1C24"/>
<path d="M44.8631 45.5903C43.603 44.2411 42.2738 42.9476 40.9583 41.6402C40.1136 40.8057 38.909 40.7918 38.1059 41.5707C37.3027 42.3495 37.2889 43.5735 38.1197 44.4359C39.4352 45.7989 40.7783 47.1341 42.1353 48.4555C42.7307 49.0396 43.4646 49.1509 44.2538 48.8032C45.0293 48.4555 45.3893 47.8296 45.5001 46.7586C45.3477 46.4943 45.1954 45.9519 44.8631 45.5903Z" fill="#ED1C24"/>
</g>
<defs>
<clipPath id="clip0_214_1042">
<rect width="100" height="100" fill="white" transform="translate(0.5)"/>
</clipPath>
</defs>
</svg>
