<svg width="101" height="100" viewBox="0 0 101 100" fill="none" xmlns="http://www.w3.org/2000/svg">
<g clip-path="url(#clip0_214_164)">
<path d="M6.5 46.7285C7.13667 45.6183 8.06088 45.4333 9.27262 45.68C13.4829 46.564 17.7137 47.4274 21.965 48.2086C24.3064 48.6404 26.0315 49.7299 26.812 51.9913C29.3792 51.5596 31.8848 51.1484 34.4932 50.7167C34.4932 50.4495 34.4932 50.1205 34.4932 49.8122C34.4932 43.3775 34.4726 36.9429 34.5137 30.5288C34.5137 29.7681 34.7191 28.9458 35.0682 28.2674C37.2042 23.9913 39.4222 19.7564 41.5582 15.4803C42.0716 14.4524 42.7699 14.0001 43.9406 14.0207C56.2839 14.0412 68.6477 14.0412 80.991 14.0207C82.1411 14.0207 82.8599 14.4318 83.3939 15.4597C85.5504 19.7769 87.789 24.0736 89.966 28.3907C90.2741 29.0075 90.4589 29.7476 90.4589 30.426C90.4795 42.8841 90.4795 55.3217 90.5 67.7799C90.5 68.9517 90.0687 69.6506 89.0213 70.144C82.1411 73.3511 75.3225 76.6815 68.4012 79.7857C65.4438 81.122 62.3425 82.0882 59.2619 83.1367C55.6267 84.3702 51.9709 84.2674 48.2946 83.26C41.1269 81.307 34.3083 78.47 27.5719 75.4274C26.4628 74.9135 25.3333 74.3995 24.2242 73.9062C24.1831 73.8856 24.1215 73.9061 24.0188 73.8856C23.9572 73.9678 23.8751 74.0912 23.8134 74.194C22.7866 76.0853 21.1846 77.0926 19.0281 77.1132C15.5572 77.1338 12.0863 77.1132 8.6154 77.1132C7.56797 77.1132 6.84914 76.6815 6.5 75.6741C6.5 66.0119 6.5 56.3702 6.5 46.7285ZM65.9161 64.2028C66.1831 64.1411 66.368 64.1 66.5528 64.0589C69.7156 63.2982 72.8579 62.4965 76.0208 61.7975C79.6355 60.9957 83.168 61.0985 86.5773 62.7637C86.68 62.8048 86.8237 62.7843 86.9264 62.8048C86.9264 52.3819 86.9264 42.0001 86.9264 31.5772C82.2643 31.5772 77.6638 31.5772 72.9606 31.5772C72.9606 31.9267 72.9606 32.2145 72.9606 32.5229C72.9606 34.9076 72.9606 37.2923 72.9606 39.6565C72.9606 41.4862 72.4061 42.0412 70.5577 42.0412C65.1562 42.0412 59.7342 42.0412 54.3328 42.0412C52.5665 42.0412 51.9709 41.4451 51.9709 39.6771C51.9709 37.2718 51.9709 34.8665 51.9709 32.4612C51.9709 32.1734 51.9504 31.8856 51.9298 31.5978C47.2472 31.5978 42.6467 31.5978 38.0257 31.5978C38.0257 38.0941 38.0257 44.5082 38.0257 50.984C41.0447 51.3951 43.6531 52.8753 46.3846 54.0266C48.3973 54.8694 50.4716 55.5684 52.5665 56.1029C55.4213 56.843 58.3171 57.3775 61.0281 58.611C63.4516 59.7211 65.4438 61.2424 65.9161 64.2028ZM86.6183 67.3893C86.6594 67.2659 86.7005 67.1631 86.721 67.0398C86.0022 66.5669 85.345 65.9913 84.5851 65.6624C81.9768 64.5728 79.2452 64.5934 76.5342 65.2307C71.8516 66.3202 67.1073 67.122 62.6917 69.2395C60.0012 70.5141 57.0232 70.1646 54.1274 69.8357C49.1572 69.26 44.3308 67.9238 39.5249 66.5669C39.2579 66.4847 39.0115 66.3819 38.7856 66.238C38.1489 65.8474 37.8614 65.0045 38.0873 64.3056C38.3337 63.5655 38.991 63.0721 39.7509 63.0926C40.1 63.1132 40.4491 63.1954 40.7983 63.2777C45.9328 64.6962 51.0672 66.1147 56.4071 66.5053C58.0501 66.6286 59.6932 66.6286 61.2746 66.0941C62.5274 65.6624 62.856 64.7578 62.0961 63.6683C61.7469 63.1749 61.2746 62.6609 60.7406 62.4142C59.1797 61.7153 57.6188 60.9341 55.9553 60.564C50.944 59.4128 46.0355 58.0148 41.4555 55.6095C39.833 54.7461 38.0462 54.2733 36.1773 54.2938C33.1787 54.3144 30.2623 54.8283 27.387 55.6506C27.12 55.7329 26.7914 56.0618 26.7504 56.3291C26.0932 60.7901 25.4565 65.2512 24.8609 69.7329C24.8403 69.959 25.0663 70.3291 25.2716 70.4319C32.4394 73.8445 39.7509 76.9282 47.3293 79.3746C51.8066 80.8136 56.1606 80.8548 60.5352 79.0868C63.924 77.7094 67.3743 76.4759 70.7015 74.9752C76.0208 72.5288 81.299 69.9179 86.6183 67.3893ZM10.0325 49.4421C10.0325 57.5214 10.0325 65.4979 10.0325 73.495C13.2159 73.495 16.3582 73.5361 19.48 73.4539C19.9112 73.4333 20.4247 72.9399 20.7122 72.5288C20.9792 72.1587 20.9998 71.6037 21.0614 71.1103C21.8623 65.4774 22.6633 59.865 23.4643 54.2321C23.6697 52.8136 23.1973 52.053 21.7597 51.7652C19.0897 51.2101 16.4198 50.6756 13.7499 50.1411C12.5381 49.9355 11.3264 49.6888 10.0325 49.4421ZM54.99 17.5155C51.5396 17.5155 48.2125 17.495 44.8853 17.5361C44.6389 17.5361 44.3103 17.865 44.1665 18.1323C42.5851 21.1749 41.0242 24.2586 39.4633 27.3217C39.3606 27.5273 39.2785 27.7534 39.1758 27.9796C43.6325 27.9796 47.9866 27.9796 52.3817 27.9796C53.2443 24.5053 54.1068 21.0721 54.99 17.5155ZM85.7968 28.0001C85.7352 27.8151 85.7147 27.7123 85.6736 27.6301C84.0306 24.423 82.4081 21.1954 80.7445 18.0089C80.6213 17.7622 80.1694 17.5361 79.8614 17.5361C77.6227 17.495 75.3841 17.5155 73.1455 17.5155C72.1186 17.5155 71.0917 17.5155 70.0032 17.5155C70.8863 21.0721 71.7489 24.5258 72.632 28.0001C77.0066 28.0001 81.3401 28.0001 85.7968 28.0001ZM66.368 17.5155C63.8829 17.5155 61.5005 17.495 59.1386 17.5361C58.9127 17.5361 58.5636 17.8239 58.502 18.0295C58.1528 19.2424 56.5303 25.8415 55.9963 27.9796C60.3504 27.9796 64.6428 27.9796 68.9763 27.9796C68.1137 24.4847 67.2306 21.0104 66.368 17.5155ZM55.524 38.4642C60.2271 38.4642 64.8276 38.4642 69.4076 38.4642C69.4076 36.1205 69.4076 33.8386 69.4076 31.5772C64.7455 31.5772 60.145 31.5772 55.524 31.5772C55.524 33.9003 55.524 36.1617 55.524 38.4642Z" fill="#ED1C24"/>
<path d="M28.5 34.5L8.5 34.5" stroke="#ED1C24" stroke-width="3" stroke-linecap="round"/>
<path d="M32.5 22L8.5 22" stroke="#ED1C24" stroke-width="3" stroke-linecap="round"/>
</g>
<defs>
<clipPath id="clip0_214_164">
<rect width="84" height="70" fill="white" transform="translate(6.5 14)"/>
</clipPath>
</defs>
</svg>
