<svg width="101" height="100" viewBox="0 0 101 100" fill="none" xmlns="http://www.w3.org/2000/svg">
<g clip-path="url(#clip0_214_293)">
<path d="M85.56 51.2231C82.8209 52.6375 80.1361 54.052 77.2614 55.5208C80.4344 57.4249 82.0073 60.009 80.7056 63.5723C79.6751 66.4012 77.3699 67.5165 74.4138 67.4621C73.5731 70.1005 71.8375 71.6238 69.0713 71.9774C68.8543 72.0046 68.556 72.3582 68.4747 72.603C67.6068 75.7039 65.6813 77.2272 62.427 77.3088C62.1287 77.3088 61.6947 77.608 61.532 77.88C59.7964 81.0353 56.3251 81.933 53.2877 79.9473C51.3622 78.696 49.4638 77.4176 47.3756 76.0304C46.6976 76.7648 46.101 77.4992 45.423 78.152C42.6025 80.9809 38.86 80.3009 37.1515 76.656C37.0972 76.5744 37.043 76.4928 36.9888 76.4112C33.7886 76.8464 31.3208 75.5951 30.2631 71.9774C26.3307 71.6782 24.7849 70.2909 24.2154 66.5372C23.9171 66.4556 23.5917 66.374 23.2662 66.2924C20.6899 65.6396 19.1169 63.2459 19.4424 60.5802C19.4966 60.1722 19.3339 59.6282 19.0898 59.329C18.1677 58.2409 17.1643 57.2617 16.0795 56.1193C15.727 56.7177 15.4287 57.2345 15.1032 57.7513C14.5066 58.7577 13.6659 58.9753 12.7167 58.3769C8.97419 56.092 5.2588 53.8072 1.54341 51.5223C0.404386 50.8151 0.214549 50.1078 0.892539 48.9654C6.39782 39.7443 11.9031 30.4415 17.4355 21.166C18.0864 20.0508 18.8729 19.8876 20.0119 20.5676C23.7544 22.8253 27.4969 25.1102 31.2123 27.395C32.2699 28.0479 32.3242 28.7551 31.4564 30.4415C31.6733 30.4959 31.8903 30.5775 32.1072 30.5775C34.4666 30.6864 36.8532 30.7952 39.2126 30.8496C39.6194 30.8496 40.1618 30.632 40.3787 30.3055C42.1957 27.7214 44.7179 26.851 47.7824 26.9326C52.908 27.0414 57.9794 27.667 63.0507 28.4559C65.4644 28.8367 67.9323 28.9455 70.4815 29.1903C69.5866 26.5518 69.5865 26.579 71.9188 25.1646C75.0647 23.2877 78.1835 21.3836 81.3294 19.5068C82.6853 18.6907 83.3091 18.8267 84.204 20.1596C89.4381 27.9391 94.6722 35.6913 99.9063 43.4708C100.855 44.8853 100.693 45.5653 99.2283 46.4629C95.8926 48.4758 92.5569 50.4887 89.2212 52.5015C87.5397 53.508 87.1058 53.4264 85.9668 51.8215C85.8312 51.5767 85.6956 51.4407 85.56 51.2231ZM49.5723 73.7999C51.4978 75.0511 53.3419 76.3296 55.2132 77.5264C56.3793 78.2608 57.7082 78.016 58.4946 76.9824C58.9557 76.384 59.0099 75.9215 58.2777 75.3775C56.2979 73.9087 54.3453 72.3582 52.4198 70.8078C52.0673 70.5358 51.6062 70.1005 51.6062 69.7197C51.6062 69.1757 51.7961 68.4957 52.1758 68.1149C52.7453 67.5437 53.5046 67.7341 54.1284 68.2237C56.2437 69.8829 58.359 71.515 60.4744 73.1743C60.8812 73.4735 61.288 73.7999 61.749 74.0175C62.9151 74.5887 64.4067 74.0991 65.1118 72.9294C65.844 71.7326 65.6813 71.107 64.3254 70.1005C61.5591 68.0061 58.7929 65.9388 56.0267 63.8443C55.403 63.3819 54.9691 62.7291 55.2945 62.0219C55.5115 61.5594 56.1081 61.0698 56.5963 60.961C57.0302 60.8794 57.6268 61.2058 58.0336 61.505C60.854 63.5723 63.6202 65.694 66.4136 67.7885C66.8204 68.0877 67.2271 68.3869 67.6882 68.6045C69.0442 69.2301 70.6985 68.5229 71.2137 67.1356C71.4307 66.5644 71.4307 66.1292 70.8341 65.7484C69.695 65.014 68.6374 64.1707 67.5255 63.3819C64.3254 61.0698 61.1524 58.7849 57.9794 56.4457C57.5997 56.1737 57.1115 55.7656 57.0844 55.412C57.0573 54.8408 57.2471 54.1064 57.6268 53.7256C58.1692 53.1543 58.9285 53.3448 59.5794 53.8072C62.0744 55.6296 64.5694 57.4249 67.0916 59.2202C69.2611 60.7706 71.4307 62.3483 73.6274 63.8715C74.6037 64.5515 75.6885 64.4699 76.6919 63.8443C77.6682 63.2459 78.075 62.2939 78.0208 61.1514C77.9665 59.9818 77.2614 59.2474 76.3665 58.6217C68.4475 53.2631 60.5286 47.9046 52.6097 42.546C50.7927 41.3219 48.9756 40.0979 47.1315 38.8466C45.3416 40.7235 43.7416 42.6276 41.9245 44.314C40.7042 45.4565 39.2939 46.4901 37.8024 47.1973C35.0904 48.4758 32.3242 48.2582 29.7749 46.5717C28.419 45.6469 28.3105 44.8036 29.3681 43.5524C31.7818 40.6691 34.1954 37.7586 36.6091 34.8753C36.826 34.6033 37.043 34.3313 37.3413 33.9233C34.9006 33.8145 32.6767 33.7601 30.4529 33.6241C29.7478 33.5697 29.3681 33.7873 29.0156 34.4129C26.2223 39.2003 23.3747 43.9332 20.5543 48.6934C19.6322 50.271 18.683 51.8215 17.7338 53.4536C18.9813 54.7592 20.2017 56.0376 21.5306 57.4249C22.534 56.3369 23.4018 55.3304 24.3781 54.4328C26.846 52.1751 30.5614 52.7735 32.2428 55.6296C32.3784 55.8472 32.514 56.092 32.6496 56.2825C37.0159 54.5416 40.216 56.4457 40.7313 61.0154C40.7584 61.2602 41.1109 61.5866 41.3821 61.6682C43.0907 62.1851 44.3111 63.2187 44.9619 64.878C45.206 65.5308 45.3145 66.238 45.4772 66.918C49.0841 67.7069 50.3316 69.8013 49.5723 73.7999ZM83.7972 48.639C83.6616 48.367 83.6074 48.2582 83.526 48.1494C80.0818 43.0356 76.6376 37.8946 73.1392 32.808C72.9223 32.4816 72.3256 32.264 71.8917 32.2368C67.878 31.8288 63.8914 31.448 59.8777 31.1216C55.4843 30.7408 51.1181 30.3871 46.7247 30.0879C45.3687 29.9791 44.2568 30.5231 43.3619 31.6112C39.9719 35.7185 36.5549 39.7987 33.1378 43.906C32.9479 44.1236 32.8123 44.3684 32.6496 44.586C32.6767 44.6948 32.731 44.7764 32.7581 44.8853C33.7073 44.8309 34.7107 44.9125 35.6328 44.722C37.3142 44.3684 38.6431 43.362 39.8092 42.138C41.6533 40.2067 43.4975 38.2482 45.3416 36.2897C46.5349 35.0385 46.9417 35.0113 48.379 35.9905C49.1112 36.4802 49.8435 36.9698 50.5757 37.4594C58.2234 42.6548 65.8983 47.8502 73.5731 53.0183C73.8986 53.2359 74.441 53.4536 74.7122 53.3176C77.7496 51.8215 80.7327 50.2438 83.7972 48.639ZM13.1777 55.0312C18.3033 46.3813 23.3476 37.8674 28.419 29.3263C25.3816 27.4766 22.4255 25.6542 19.4424 23.8317C14.3439 32.4272 9.2725 40.9411 4.17401 49.5638C7.18429 51.3863 10.1132 53.1815 13.1777 55.0312ZM96.7604 44.2868C91.8518 36.997 87.0245 29.8431 82.1429 22.5805C79.2683 24.3213 76.4207 26.035 73.5189 27.7758C78.4276 35.0385 83.2548 42.2196 88.1364 49.455C91.0382 47.7414 93.8586 46.0277 96.7604 44.2868ZM29.8834 68.8493C30.1546 68.7133 30.7784 68.5501 31.1852 68.1421C33.1378 66.2652 35.0362 64.3339 36.9345 62.4027C37.8295 61.4778 37.8295 60.145 36.9616 59.3018C36.1209 58.4585 34.8463 58.3769 33.9514 59.2474C31.9174 61.233 29.9377 63.2731 27.9579 65.3132C27.3342 65.966 27.2799 66.782 27.6596 67.5981C27.985 68.3869 28.663 68.7949 29.8834 68.8493ZM39.7821 64.5787C39.538 64.7148 38.9414 64.878 38.5617 65.2316C37.043 66.6732 35.5514 68.1693 34.1141 69.6925C33.2191 70.6174 33.2191 71.8414 34.0327 72.7118C34.8734 73.6095 36.2023 73.7183 37.1244 72.8206C38.7244 71.2974 40.2431 69.7197 41.7618 68.1149C42.3856 67.462 42.3856 66.646 42.033 65.83C41.6533 65.0412 40.9753 64.6331 39.7821 64.5787ZM29.7749 58.4857C29.8021 57.3161 29.3953 56.6905 28.6359 56.3097C27.8494 55.9288 27.0901 56.0376 26.4663 56.6361C25.3273 57.7241 24.1883 58.8393 23.1035 60.009C22.317 60.8522 22.3713 62.0763 23.1306 62.8379C23.9442 63.6267 25.0561 63.6267 25.924 62.7835C27.0087 61.7226 28.0935 60.6618 29.1512 59.5466C29.4766 59.193 29.6665 58.7033 29.7749 58.4857ZM47.023 71.651C46.6162 71.1614 46.2637 70.563 45.7484 70.2093C45.1247 69.7741 44.4467 69.9645 43.9043 70.5086C42.8195 71.5694 41.7347 72.6574 40.677 73.7455C39.8363 74.6159 39.7821 75.6223 40.5143 76.3296C41.2194 77.0096 42.25 77.0096 43.0636 76.2208C44.1755 75.1327 45.2603 74.0175 46.3179 72.875C46.5891 72.603 46.7247 72.195 47.023 71.651Z" fill="#ED1C24"/>
</g>
<defs>
<clipPath id="clip0_214_293">
<rect width="100" height="100" fill="white" transform="translate(0.5)"/>
</clipPath>
</defs>
</svg>
