<svg width="100" height="100" viewBox="0 0 100 100" fill="none" xmlns="http://www.w3.org/2000/svg">
<g clip-path="url(#clip0_214_88)">
<path d="M71.1812 57.2569C74.6684 62.7569 78.127 68.2283 81.5855 73.6855C81.9286 74.2283 82.1429 74.7855 81.8714 75.4283C81.5855 76.114 81.0139 76.4426 80.2707 76.3283C76.4691 75.7712 72.6533 75.1998 68.8517 74.6426C68.766 74.6283 68.6659 74.6283 68.523 74.6283C67.9227 76.7855 67.3368 78.9283 66.7508 81.0712C66.3507 82.514 65.9791 83.9569 65.5789 85.3998C65.2931 86.4283 64.6786 86.8998 63.7496 86.8426C63.0922 86.7998 62.7635 86.3569 62.4491 85.8569C59.4049 81.0283 56.3608 76.2141 53.3167 71.3855C52.8022 70.5855 52.3306 69.7569 51.7732 68.9855C51.616 68.7712 51.2587 68.5426 51.0157 68.5712C48.6576 68.814 46.3138 68.8855 43.97 68.5712C43.7556 68.5426 43.384 68.8283 43.2411 69.0569C40.2684 73.814 37.3101 78.5855 34.3517 83.3426C33.7943 84.2283 33.2512 85.114 32.6939 86.014C32.2794 86.6712 31.722 87.0712 30.9217 86.9569C30.1214 86.8569 29.7927 86.2569 29.5926 85.5569C28.5779 81.9998 27.5632 78.4426 26.5342 74.7998C25.4051 74.9712 24.2761 75.1283 23.1614 75.314C20.3888 75.7569 17.6305 76.214 14.8579 76.6426C14.2005 76.7426 13.6145 76.514 13.243 75.9426C12.8857 75.3998 12.9714 74.8426 13.3287 74.2855C16.6872 68.8712 20.0458 63.4569 23.39 58.0426C23.5044 57.8569 23.6044 57.6712 23.7187 57.4998C12.5855 43.4855 16.2442 25.0283 27.4346 15.3855C38.8107 5.57119 55.5176 5.52833 67.1081 15.2855C78.227 24.6712 82.2716 43.0426 71.1812 57.2569ZM77.2409 72.6998C77.0408 72.3569 76.9122 72.1426 76.7693 71.9283C73.9252 67.4283 71.0812 62.9283 68.2372 58.4283C67.3797 57.0712 67.4083 56.7712 68.4087 55.5283C73.0677 49.6855 75.14 43.0283 74.4254 35.5855C73.8824 29.9712 71.8387 24.914 68.08 20.6855C60.5054 12.1426 51.0443 9.11405 40.0112 12.0426C28.6779 15.0569 20.9033 24.6712 20.0601 36.2712C19.5313 43.6283 21.6893 50.214 26.4198 55.8998C27.3059 56.9712 27.3488 57.3283 26.6199 58.4855C24.4476 61.9283 22.2896 65.3569 20.1172 68.7998C19.2883 70.114 18.4594 71.4283 17.559 72.8569C20.7889 72.3426 23.8902 71.8712 26.9772 71.3712C28.192 71.1712 28.8066 71.5426 29.1495 72.7426C29.4354 73.7426 29.7212 74.7569 30.007 75.7569C30.5358 77.6426 31.0789 79.514 31.6363 81.514C31.8364 81.214 31.9793 81.0426 32.0936 80.8426C33.0083 79.3712 33.923 77.8998 34.8376 76.414C36.9671 72.9855 39.0965 69.5569 41.226 66.114C41.5976 65.4998 42.0835 65.0426 42.8409 65.1855C45.7278 65.714 48.6148 65.7283 51.5017 65.2426C52.5307 65.0712 53.1166 65.4283 53.6168 66.2426C56.0178 70.0712 58.4474 73.8712 60.8627 77.6855C61.6487 78.914 62.4205 80.1426 63.2494 81.4569C63.3351 81.1855 63.4066 81.0283 63.4495 80.8712C64.2069 78.1283 64.9644 75.3855 65.7361 72.6426C66.0505 71.4998 66.6651 71.1283 67.8656 71.314C70.9383 71.7712 74.011 72.214 77.2409 72.6998Z" fill="#ED1C24"/>
<path d="M57.447 55.6286C57.0611 55.4858 56.6467 55.3715 56.2751 55.1715C53.4739 53.7144 50.6728 52.2572 47.8859 50.7715C47.5 50.5715 47.2285 50.5715 46.8426 50.7715C44.0414 52.2858 41.226 53.7572 38.4105 55.2572C37.7674 55.6001 37.1386 55.7572 36.4812 55.2715C35.8523 54.8144 35.7809 54.1715 35.8952 53.4858C36.1953 51.6286 36.5097 49.7858 36.8242 47.9429C37.0385 46.6715 37.2243 45.4144 37.4673 44.1572C37.5673 43.6429 37.453 43.2858 37.0528 42.9144C34.809 40.7858 32.5938 38.6286 30.3786 36.4572C30.15 36.2286 29.907 35.9715 29.7641 35.6858C29.2496 34.6715 29.8213 33.6286 31.036 33.4286C32.6796 33.1572 34.3231 32.9286 35.9667 32.6715C37.5673 32.4286 39.168 32.2001 40.7544 31.9144C41.0259 31.8572 41.3546 31.5429 41.4832 31.2715C42.9124 28.4001 44.313 25.5144 45.7278 22.6429C46.2423 21.6001 47.1284 21.2429 47.9859 21.8001C48.3146 22.0144 48.5862 22.4001 48.772 22.7715C50.2011 25.5858 51.6303 28.4001 53.0166 31.2429C53.2452 31.7144 53.5311 31.9001 54.0313 31.9715C57.1897 32.3858 60.3339 32.8286 63.4923 33.2858C64.1926 33.3858 64.7357 33.7572 64.9787 34.4572C65.2216 35.1715 64.8929 35.7001 64.407 36.1715C62.1204 38.4286 59.848 40.7001 57.547 42.9429C57.2183 43.2572 57.104 43.5429 57.1897 44.0001C57.8043 47.2144 58.3759 50.4429 58.9762 53.6572C59.1477 54.7001 58.5046 55.5572 57.447 55.6286ZM39.3395 51.1429C39.6396 51.0001 39.8397 50.9144 40.0398 50.8001C42.0692 49.7144 44.1129 48.6429 46.128 47.5429C46.9141 47.1144 47.6429 47.1286 48.429 47.5429C50.4584 48.6286 52.5021 49.6858 54.5458 50.7572C54.7602 50.8715 54.9745 50.9715 55.2747 51.1144C54.8173 48.4572 54.4172 45.9286 53.9455 43.4144C53.7883 42.5715 53.9884 41.9429 54.5887 41.3715C56.2179 39.8001 57.8186 38.2144 59.4478 36.6429C59.6479 36.4572 59.9194 36.3429 60.1624 36.1858C59.8766 35.9286 59.7622 35.8715 59.6479 35.8572C57.2469 35.5144 54.8459 35.1572 52.4449 34.8572C51.6017 34.7429 51.0586 34.3429 50.7013 33.6001C50.0725 32.2715 49.3865 30.9572 48.7291 29.6429C48.2432 28.6715 47.7573 27.7001 47.2428 26.6572C47.1141 26.9001 47.0141 27.0715 46.9426 27.2286C45.8993 29.3572 44.8561 31.5001 43.8414 33.6286C43.4841 34.3715 42.9981 34.8429 42.1264 34.9286C40.9973 35.0429 39.8683 35.2286 38.7392 35.4001C37.3244 35.6001 35.8952 35.8144 34.3517 36.0429C34.5947 36.3001 34.7519 36.4715 34.9091 36.6286C36.4669 38.1286 37.9961 39.6572 39.611 41.1144C40.5114 41.9286 40.7544 42.7858 40.5114 43.9715C40.0827 46.3144 39.7397 48.6858 39.3395 51.1429Z" fill="#ED1C24"/>
</g>
<defs>
<clipPath id="clip0_214_88">
<rect width="69" height="79" fill="white" transform="translate(13 8)"/>
</clipPath>
</defs>
</svg>
