<svg width="101" height="100" viewBox="0 0 101 100" fill="none" xmlns="http://www.w3.org/2000/svg">
<g clip-path="url(#clip0_214_118)">
<path d="M10.2169 92H77.8615C78.3168 92 78.7532 91.8188 79.0752 91.4963C79.3971 91.1738 79.5778 90.7363 79.5778 90.2803V73.8343C79.6041 71.3363 78.8325 68.8952 77.3759 66.8677C75.9191 64.8402 73.8534 63.3328 71.4807 62.5653L54.147 56.7756V51.2909C54.147 51.2317 54.1439 51.1728 54.1383 51.115C56.3321 49.3825 58.0512 47.12 59.134 44.5401C60.3878 44.5366 61.6149 44.1759 62.6717 43.5C63.7285 42.824 64.5716 41.8608 65.1024 40.7226C65.6333 39.5844 65.8301 38.3186 65.6697 37.0725C65.5094 35.8265 64.9986 34.6519 64.197 33.686C64.4526 32.5012 64.8813 30.3143 65.0664 29.0561C65.1228 28.6705 65.1788 28.3088 65.2319 27.9665C65.7298 24.7519 66.0298 22.8115 64.1003 19.1713C62.0041 15.2192 58.7996 11.9681 54.8819 9.81861C50.9641 7.66914 46.5045 6.71492 42.0523 7.0739C37.6002 7.43288 33.3502 9.08928 29.8259 11.8388C26.3016 14.5884 23.6571 18.311 22.2184 22.5479C22.1878 22.638 22.1648 22.7303 22.1495 22.824C21.5773 26.3228 22.0637 29.9751 23.5917 33.6893C22.7917 34.6545 22.2819 35.8279 22.1217 37.0725C21.9616 38.3171 22.1577 39.5815 22.6873 40.7186C23.2169 41.8559 24.058 42.8187 25.1128 43.4952C26.1675 44.1717 27.3924 44.534 28.6448 44.5397C29.7587 47.1804 31.5339 49.4882 33.7987 51.2399C33.8415 51.2733 33.8869 51.3043 33.9307 51.3372V56.7758L16.5969 62.5653C14.2244 63.3328 12.1589 64.8404 10.7024 66.8679C9.24574 68.8953 8.47428 71.3363 8.50065 73.8343V90.2803C8.50065 90.7363 8.68147 91.1738 9.00332 91.4963C9.32517 91.8188 9.7617 92 10.2169 92ZM48.2563 69.1001L47.5659 73.053H40.5122L39.8951 69.5176C39.8638 69.3383 39.8041 69.1654 39.7184 69.005L44.0394 65.9311L48.2894 68.9553C48.277 69.0023 48.2651 69.0504 48.2563 69.1001ZM40.9801 76.4924H47.1006L49.206 88.5606H38.8723L40.9801 76.4924ZM76.1464 73.8343V88.5606H67.9384V81.0357C67.9384 80.5797 67.7578 80.1422 67.4358 79.8197C67.1139 79.4972 66.6775 79.316 66.2222 79.316C65.7671 79.316 65.3305 79.4972 65.0087 79.8197C64.6869 80.1422 64.506 80.5797 64.506 81.0357V88.5606H52.6904L50.5169 76.1098L51.3819 71.1551L56.2946 74.6507C56.5514 74.8334 56.8534 74.9419 57.1676 74.9641C57.4817 74.9862 57.7958 74.9215 58.0756 74.7768C58.3555 74.6318 58.5902 74.4128 58.754 74.1434C58.9178 73.8737 59.0044 73.5643 59.0046 73.2488V62.0229L70.3959 65.8276C72.0812 66.3733 73.5482 67.4446 74.5827 68.8851C75.617 70.3256 76.1658 72.0597 76.1464 73.8343ZM55.5735 60.8764V69.9182L47.005 63.821L52.5584 59.8692L55.5735 60.8764ZM60.1986 40.9064C60.5422 38.9175 60.5198 36.8823 60.1332 34.9014C60.7567 35.1125 61.2995 35.5126 61.6863 36.0464C62.0729 36.5802 62.2846 37.2211 62.2917 37.8807C62.2988 38.5402 62.1013 39.1857 61.7264 39.7279C61.3513 40.2699 60.8175 40.6817 60.1986 40.9064ZM25.5145 23.5201C26.7601 19.9393 29.0206 16.8001 32.0195 14.4872C35.0183 12.1741 38.6253 10.7875 42.3986 10.4971C46.1719 10.2069 49.9478 11.0254 53.2638 12.8526C56.5799 14.6799 59.2922 17.4364 61.0686 20.7848C62.463 23.4145 62.3058 24.4289 61.8399 27.4395C61.7857 27.7899 61.7284 28.1602 61.6702 28.5554C61.553 29.3526 61.3295 30.5568 61.1212 31.6046C60.472 31.3964 59.7943 31.2905 59.1126 31.2909H59.0515C57.1112 24.8748 54.9194 21.5532 52.1751 20.8576C50.9718 20.5522 49.0969 20.634 47.0027 22.7563C46.9034 22.8565 46.817 22.9684 46.7453 23.0898C43.6067 28.4038 38.0015 30.9418 30.0891 30.6347C29.8186 30.6243 29.5495 30.6782 29.3038 30.7921C29.0581 30.906 28.8428 31.0766 28.6757 31.29C27.9292 31.2902 27.1883 31.4173 26.4844 31.6664C25.4431 28.8529 25.1166 26.1181 25.5145 23.5201ZM25.4995 37.9158C25.5006 37.2736 25.6951 36.6468 26.0576 36.1174C26.4202 35.5878 26.9339 35.1804 27.5314 34.9482C27.1914 36.9157 27.1998 38.9277 27.5559 40.8923C26.9525 40.6638 26.4325 40.2565 26.0652 39.7249C25.698 39.1934 25.5007 38.5624 25.4995 37.9158ZM31.2428 34.1002H31.3793C39.8176 34.1002 45.9369 31.055 49.5827 25.0367C50.0975 24.5424 50.7763 24.0493 51.3336 24.1919C51.8589 24.3248 53.7434 25.3418 55.9301 32.8365C55.9482 32.8981 55.9696 32.9587 55.9945 33.0179C57.1117 35.6927 57.3153 38.6625 56.5732 41.4652C55.8312 44.2678 54.1851 46.746 51.8915 48.5139C49.5979 50.2821 46.7854 51.2405 43.8915 51.2405C40.9976 51.2403 38.1853 50.2817 35.8917 48.5136C33.7674 46.8522 32.189 44.5909 31.3603 42.0215C30.5316 39.4522 30.4908 36.693 31.2428 34.1002ZM43.8913 54.6751C46.2448 54.6749 48.5711 54.1721 50.7154 53.2005V56.9614L44.0394 61.7121L37.3631 56.9614V53.3351C39.4261 54.2202 41.6472 54.676 43.8913 54.6751ZM35.5219 59.8692L41.0753 63.821L32.5063 69.9182V60.8764L35.5219 59.8692ZM11.9331 73.8343C11.9138 72.0599 12.4614 70.3258 13.4958 68.8853C14.5302 67.4448 15.9971 66.3735 17.6824 65.828L29.0739 62.023V73.2489C29.0739 73.5646 29.1604 73.8741 29.3243 74.1435C29.4881 74.413 29.7228 74.6322 30.0027 74.7769C30.2824 74.9217 30.5966 74.9864 30.9107 74.9642C31.2248 74.942 31.5269 74.8336 31.7837 74.6509L36.6964 71.1554L37.561 76.1099L35.3879 88.5606H23.5722V81.0357C23.5722 80.5797 23.3914 80.1422 23.0696 79.8197C22.7477 79.4972 22.3112 79.316 21.856 79.316C21.4009 79.316 20.9643 79.4972 20.6425 79.8197C20.3206 80.1422 20.1398 80.5797 20.1398 81.0357V88.5606H11.9331V73.8343ZM71.0516 36.1748C70.6707 36.2597 70.3298 36.4723 70.0856 36.7775C69.8412 37.0828 69.7081 37.4621 69.7081 37.8534V42.1936C69.7081 42.5848 69.8412 42.9644 70.0856 43.2696C70.3298 43.5748 70.6707 43.7874 71.0516 43.8724L72.3678 44.1657C72.5851 44.8372 72.8553 45.4902 73.1759 46.1189L72.4519 47.2593C72.2422 47.5893 72.1513 47.9813 72.1939 48.3701C72.2366 48.759 72.4103 49.1218 72.6864 49.3985L75.7492 52.4669C76.0252 52.7434 76.3872 52.9174 76.7753 52.9602C77.1633 53.0029 77.5544 52.9117 77.8837 52.7017L79.0218 51.9766C79.6492 52.2978 80.301 52.5687 80.9712 52.7863L81.2638 54.1048C81.3485 54.4867 81.5607 54.8283 81.8653 55.073C82.1699 55.3177 82.5487 55.4512 82.939 55.4512H87.2699C87.6603 55.4512 88.0391 55.3177 88.3437 55.073C88.6482 54.8283 88.8603 54.4867 88.9451 54.1048L89.2378 52.7863C89.9082 52.5687 90.5601 52.298 91.1874 51.9766L92.3244 52.7017C92.6537 52.9117 93.0448 53.0029 93.4329 52.9602C93.821 52.9174 94.1829 52.7434 94.4589 52.4669L97.5218 49.3985C97.7978 49.1218 97.9715 48.759 98.0142 48.3701C98.0568 47.9813 97.9659 47.5893 97.7563 47.2593L97.0322 46.1189C97.3528 45.4902 97.6232 44.8372 97.8405 44.1657L99.1563 43.8724C99.5375 43.7874 99.8783 43.5748 100.123 43.2696C100.367 42.9644 100.5 42.5848 100.5 42.1936V37.853C100.5 37.4618 100.367 37.0822 100.123 36.777C99.8783 36.4719 99.5375 36.2593 99.1563 36.1744L97.8403 35.8811C97.623 35.2096 97.3528 34.5565 97.0322 33.9281L97.7563 32.7875C97.9657 32.4573 98.0567 32.0655 98.014 31.6766C97.9714 31.2878 97.7976 30.9249 97.5216 30.6483L94.4591 27.5799C94.1831 27.3032 93.821 27.1292 93.4329 27.0866C93.0448 27.0439 92.6537 27.135 92.3244 27.3451L91.1874 28.0704C90.5599 27.749 89.908 27.4782 89.2378 27.2603L88.9451 25.9418C88.8603 25.5599 88.6482 25.2185 88.3435 24.9738C88.0391 24.7291 87.6603 24.5958 87.2699 24.5958H82.939C82.5487 24.5958 82.1699 24.7291 81.8653 24.9738C81.5609 25.2185 81.3487 25.5599 81.2638 25.9418L80.9712 27.2603C80.301 27.4781 79.6492 27.749 79.0218 28.0704L77.8837 27.3451C77.5544 27.135 77.1633 27.0439 76.7753 27.0866C76.3872 27.1292 76.0251 27.3032 75.749 27.5799L72.6871 30.6483C72.4109 30.9249 72.2371 31.2878 72.1945 31.6766C72.1518 32.0655 72.2428 32.4573 72.4524 32.7875L73.1764 33.9281C72.8557 34.5565 72.5853 35.2097 72.368 35.8813L71.0516 36.1748ZM73.1405 39.2326L74.1152 39.0156C74.4302 38.9454 74.7191 38.7876 74.9486 38.5603C75.1782 38.3329 75.3391 38.0453 75.4131 37.7305C75.6582 36.6871 76.0706 35.6905 76.6345 34.7798C76.8045 34.5046 76.8937 34.1873 76.8917 33.8637C76.8898 33.5403 76.7969 33.2239 76.6237 32.951L76.0873 32.1055L77.2029 30.9879L78.0466 31.5251C78.3188 31.6985 78.6343 31.7915 78.9568 31.7935C79.2792 31.7953 79.5957 31.7062 79.8701 31.5361C80.7792 30.9712 81.7738 30.5579 82.8152 30.3125C83.1295 30.2383 83.4164 30.0771 83.6434 29.8473C83.8702 29.6172 84.0278 29.3278 84.0979 29.0121L84.3143 28.0355H85.8925L86.1091 29.0121C86.1792 29.3278 86.3368 29.6172 86.5636 29.8473C86.7906 30.0773 87.0775 30.2385 87.3918 30.3126C88.4332 30.5579 89.428 30.9712 90.3371 31.5363C90.6113 31.7064 90.9278 31.7955 91.2504 31.7935C91.5729 31.7915 91.8884 31.6985 92.1604 31.5251L93.0041 30.9879L94.1197 32.1055L93.5835 32.951C93.4102 33.2239 93.3172 33.5403 93.3153 33.8637C93.3133 34.1873 93.4025 34.5046 93.5725 34.7798C94.1364 35.6907 94.549 36.6873 94.7939 37.7309C94.8679 38.0456 95.0288 38.3332 95.2585 38.5603C95.4881 38.7876 95.7768 38.9455 96.0919 39.0156L97.0665 39.2326V40.814L96.0919 41.0312C95.7768 41.1014 95.4879 41.2592 95.2584 41.4866C95.0288 41.7139 94.8679 42.0014 94.7939 42.3161C94.549 43.3597 94.1364 44.3563 93.5725 45.2672C93.4025 45.5422 93.3133 45.8597 93.3153 46.1831C93.3172 46.5066 93.4102 46.8229 93.5835 47.0958L94.1197 47.9411L93.0041 49.0589L92.1604 48.5215C91.8882 48.3481 91.5728 48.2553 91.2502 48.2533C90.9278 48.2515 90.6113 48.3406 90.3371 48.5106C89.4278 49.0756 88.4331 49.4889 87.3918 49.7343C87.0777 49.8083 86.7906 49.9695 86.5638 50.1997C86.337 50.4297 86.1794 50.7192 86.1093 51.0349L85.8927 52.0113H84.3145L84.0981 51.0349C84.028 50.719 83.8704 50.4295 83.6436 50.1993C83.4166 49.9693 83.1295 49.8081 82.8152 49.7341C81.774 49.4887 80.7794 49.0754 79.8703 48.5105C79.5961 48.3404 79.2794 48.2513 78.957 48.2533C78.6344 48.2551 78.319 48.3481 78.0468 48.5215L77.2031 49.0589L76.0875 47.9411L76.6239 47.0958C76.797 46.8229 76.89 46.5066 76.8921 46.1831C76.8939 45.8597 76.8047 45.5422 76.6348 45.2672C76.0708 44.3561 75.6582 43.3593 75.4133 42.3158C75.3393 42.001 75.1784 41.7135 74.9488 41.4865C74.7193 41.2592 74.4304 41.1014 74.1154 41.0312L73.1407 40.814L73.1405 39.2326ZM85.1044 47.3097C86.5429 47.3097 87.9489 46.8823 89.1448 46.0816C90.3408 45.2809 91.2729 44.1427 91.8234 42.8112C92.3738 41.4797 92.5177 40.0144 92.2373 38.6009C91.9567 37.1873 91.2639 35.8888 90.2468 34.8699C89.2297 33.8507 87.934 33.1566 86.5233 32.8754C85.1125 32.5942 83.6504 32.7385 82.3215 33.2901C80.9927 33.8417 79.8568 34.7757 79.0577 35.9741C78.2586 37.1725 77.8321 38.5812 77.8321 40.0227C77.8341 41.9546 78.6009 43.8069 79.9644 45.1731C81.3278 46.5391 83.1764 47.3077 85.1044 47.3097ZM85.1044 36.1748C85.864 36.1748 86.6064 36.4004 87.2378 36.8232C87.8694 37.246 88.3615 37.847 88.6522 38.5501C88.9429 39.2532 89.0189 40.0269 88.8708 40.7733C88.7225 41.5197 88.3569 42.2053 87.8198 42.7433C87.2827 43.2815 86.5986 43.648 85.8537 43.7964C85.1088 43.9448 84.3367 43.8687 83.635 43.5774C82.9333 43.2863 82.3336 42.793 81.9116 42.1604C81.4897 41.5275 81.2645 40.7835 81.2645 40.0227C81.2656 39.0024 81.6705 38.0243 82.3903 37.3029C83.1103 36.5816 84.0864 36.1759 85.1044 36.1748Z" fill="#ED1C24"/>
</g>
<defs>
<clipPath id="clip0_214_118">
<rect width="100" height="100" fill="white" transform="translate(0.5)"/>
</clipPath>
</defs>
</svg>
