<svg width="15" height="14" viewBox="0 0 15 14" fill="none" xmlns="http://www.w3.org/2000/svg">
<path d="M12.75 -0.25C13.707 -0.25 14.5 0.542969 14.5 1.5V9.375C14.5 10.3594 13.707 11.125 12.75 11.125H8.8125L5.39453 13.6953C5.3125 13.75 5.25781 13.75 5.20312 13.75C5.01172 13.75 4.875 13.6406 4.875 13.4219V11.125H2.25C1.26562 11.125 0.5 10.3594 0.5 9.375V1.5C0.5 0.542969 1.26562 -0.25 2.25 -0.25H12.75ZM13.1875 9.375V1.5C13.1875 1.28125 12.9688 1.0625 12.75 1.0625H2.25C2.00391 1.0625 1.8125 1.28125 1.8125 1.5V9.375C1.8125 9.62109 2.00391 9.8125 2.25 9.8125H6.1875V11.4531L8.01953 10.0859L8.375 9.8125H12.75C12.9688 9.8125 13.1875 9.62109 13.1875 9.375ZM4 4.5625C4.46484 4.5625 4.875 4.97266 4.875 5.4375C4.875 5.92969 4.46484 6.3125 4 6.3125C3.50781 6.3125 3.125 5.92969 3.125 5.4375C3.125 4.97266 3.50781 4.5625 4 4.5625ZM7.5 4.5625C7.96484 4.5625 8.375 4.97266 8.375 5.4375C8.375 5.92969 7.96484 6.3125 7.5 6.3125C7.00781 6.3125 6.625 5.92969 6.625 5.4375C6.625 4.97266 7.00781 4.5625 7.5 4.5625ZM11 4.5625C11.4648 4.5625 11.875 4.97266 11.875 5.4375C11.875 5.92969 11.4648 6.3125 11 6.3125C10.5078 6.3125 10.125 5.92969 10.125 5.4375C10.125 4.97266 10.5078 4.5625 11 4.5625Z" fill="#788094"/>
</svg>
