<svg width="26" height="26" viewBox="0 0 26 26" fill="none" xmlns="http://www.w3.org/2000/svg">
<path d="M16.0781 13L25.7656 22.6875C26 22.9219 26 23.3125 25.7656 23.625L24.0469 25.3438C23.7344 25.5781 23.3438 25.5781 23.1094 25.3438L21.4688 23.7031L13.5 15.6562L3.8125 25.3438C3.57812 25.5781 3.1875 25.5781 2.875 25.3438L1.15625 23.625C0.921875 23.3125 0.921875 22.9219 1.15625 22.6875L10.8438 13L1.15625 3.39062C0.921875 3.15625 0.921875 2.76562 1.15625 2.45312L2.875 0.734375C3.1875 0.5 3.57812 0.5 3.8125 0.734375L13.5 10.4219L23.1094 0.734375C23.3438 0.5 23.7344 0.5 24.0469 0.734375L25.7656 2.45312C26 2.76562 26 3.15625 25.7656 3.39062L24.125 5.03125L16.0781 13Z" fill="#ED1C24"/>
</svg>
