<svg width="12" height="17" viewBox="0 0 12 17" fill="none" xmlns="http://www.w3.org/2000/svg">
<path d="M11.5312 3.5625C11.7812 3.8125 12 4.28125 12 4.625V15C12 15.8438 11.3125 16.5 10.5 16.5H1.5C0.65625 16.5 0 15.8438 0 15V2C0 1.1875 0.65625 0.5 1.5 0.5H7.875C8.21875 0.5 8.6875 0.71875 8.9375 0.96875L11.5312 3.5625ZM10.375 4.5L8 2.125V4.5H10.375ZM1.5 15H10.5V6H7.25C6.8125 6 6.5 5.6875 6.5 5.25V2H1.5V15ZM9.65625 9L5.1875 13.4062C5.0625 13.5625 4.8125 13.5625 4.65625 13.4062L2.3125 11.0312C2.1875 10.9062 2.1875 10.6562 2.3125 10.5L3.03125 9.8125C3.1875 9.65625 3.40625 9.65625 3.5625 9.8125L4.9375 11.1875L8.40625 7.75C8.5625 7.59375 8.8125 7.59375 8.9375 7.75L9.65625 8.46875C9.78125 8.625 9.78125 8.84375 9.65625 9Z" fill="#ED1C24"/>
</svg>
