<svg width="13" height="14" viewBox="0 0 13 14" fill="none" xmlns="http://www.w3.org/2000/svg">
<path d="M9.30859 8.0625C11.332 8.0625 13 9.73047 13 11.7539V12.4375C13 13.1758 12.3984 13.75 11.6875 13.75H2.0625C1.32422 13.75 0.75 13.1758 0.75 12.4375V11.7539C0.75 9.73047 2.39062 8.0625 4.41406 8.0625C5.20703 8.0625 5.5625 8.5 6.875 8.5C8.16016 8.5 8.51562 8.0625 9.30859 8.0625ZM11.6875 12.4375V11.7539C11.6875 10.4414 10.6211 9.375 9.30859 9.375C8.89844 9.375 8.26953 9.8125 6.875 9.8125C5.45312 9.8125 4.82422 9.375 4.41406 9.375C3.10156 9.375 2.0625 10.4414 2.0625 11.7539V12.4375H11.6875ZM6.875 7.625C4.6875 7.625 2.9375 5.875 2.9375 3.6875C2.9375 1.52734 4.6875 -0.25 6.875 -0.25C9.03516 -0.25 10.8125 1.52734 10.8125 3.6875C10.8125 5.875 9.03516 7.625 6.875 7.625ZM6.875 1.0625C5.42578 1.0625 4.25 2.26562 4.25 3.6875C4.25 5.13672 5.42578 6.3125 6.875 6.3125C8.29688 6.3125 9.5 5.13672 9.5 3.6875C9.5 2.26562 8.29688 1.0625 6.875 1.0625Z" fill="#788094"/>
</svg>
