<svg width="18" height="15" viewBox="0 0 18 15" fill="none" xmlns="http://www.w3.org/2000/svg">
<path d="M17.5 0.5C17.75 0.5 18 0.71875 18 1.03125V11.8438C18 12.2188 17.6875 12.625 17.3438 12.7812L12.625 14.4062C12.4375 14.4688 12.1562 14.5 12 14.5C11.8125 14.5 11.5312 14.4688 11.375 14.4062L6 12.5L0.65625 14.4688C0.59375 14.5 0.53125 14.5 0.46875 14.5C0.21875 14.5 0 14.3125 0 14V3.1875C0 2.8125 0.28125 2.40625 0.625 2.25L5.34375 0.625C5.5625 0.5625 5.78125 0.5 5.96875 0.5C6.15625 0.53125 6.4375 0.5625 6.625 0.625L12 2.5L17.3125 0.5625C17.375 0.53125 17.4375 0.5 17.5 0.5ZM7 2.34375V11.2812L11 12.6875V3.75L7 2.34375ZM1.5 12.5938L5.46875 11.0938H5.5V2.15625L1.5 3.5625V12.5938ZM16.5 11.4688V2.4375L12.5 3.9375V12.875L16.5 11.4688Z" fill="#ED1C24"/>
</svg>
