<svg width="17" height="17" viewBox="0 0 17 17" fill="none" xmlns="http://www.w3.org/2000/svg">
<path d="M15.875 1.21875C16.5312 1.375 17 1.96875 17 2.625C17 10.3125 10.75 16.5 3.09375 16.5C2.4375 16.5 1.84375 16.0625 1.6875 15.4062L1.03125 12.4688C0.875 11.7812 1.21875 11.0938 1.84375 10.8125L5.03125 9.46875C5.59375 9.21875 6.28125 9.375 6.6875 9.875L7.71875 11.125C9.34375 10.2188 10.7188 8.875 11.5938 7.25L10.3438 6.21875C9.84375 5.8125 9.6875 5.125 9.9375 4.5625L11.3125 1.375C11.5625 0.75 12.25 0.40625 12.9375 0.5625L15.875 1.21875ZM3.15625 15C9.9375 14.9688 15.4688 9.46875 15.5 2.6875L12.6562 2.03125L11.3438 5.09375L13.4688 6.84375C12 9.9375 10.4062 11.5312 7.3125 13L5.5625 10.875L2.5 12.1875L3.15625 15Z" fill="#ED1C24"/>
</svg>
