<svg width="16" height="13" viewBox="0 0 16 13" fill="none" xmlns="http://www.w3.org/2000/svg">
<path d="M14.5 0.5C15.3125 0.5 16 1.1875 16 2V11C16 11.8438 15.3125 12.5 14.5 12.5H1.5C0.65625 12.5 0 11.8438 0 11V2C0 1.1875 0.65625 0.5 1.5 0.5H14.5ZM14.5 2H1.5V3.28125C2.1875 3.875 3.3125 4.75 5.6875 6.625C6.21875 7.03125 7.25 8.03125 8 8C8.71875 8.03125 9.75 7.03125 10.2812 6.625C12.6562 4.75 13.7812 3.875 14.5 3.28125V2ZM1.5 11H14.5V5.21875C13.7812 5.78125 12.75 6.59375 11.2188 7.8125C10.5 8.34375 9.3125 9.53125 8 9.5C6.65625 9.53125 5.4375 8.34375 4.75 7.8125C3.21875 6.59375 2.1875 5.78125 1.5 5.21875V11Z" fill="#ED1C24"/>
</svg>
