<svg width="17" height="17" viewBox="0 0 17 17" fill="none" xmlns="http://www.w3.org/2000/svg">
<path d="M1.125 1.71875C0.46875 1.875 0 2.46875 0 3.125C0 10.8125 6.25 17 13.9062 17C14.5625 17 15.1562 16.5625 15.3125 15.9062L15.9688 12.9688C16.125 12.2812 15.7812 11.5938 15.1562 11.3125L11.9688 9.96875C11.4062 9.71875 10.7188 9.875 10.3125 10.375L9.28125 11.625C7.65625 10.7188 6.28125 9.375 5.40625 7.75L6.65625 6.71875C7.15625 6.3125 7.3125 5.625 7.0625 5.0625L5.6875 1.875C5.4375 1.25 4.75 0.90625 4.0625 1.0625L1.125 1.71875ZM13.8438 15.5C7.0625 15.4688 1.53125 9.96875 1.5 3.1875L4.34375 2.53125L5.65625 5.59375L3.53125 7.34375C5 10.4375 6.59375 12.0312 9.6875 13.5L11.4375 11.375L14.5 12.6875L13.8438 15.5Z" fill="white"/>
</svg>
