<svg width="118" height="105" viewBox="0 0 118 105" fill="none" xmlns="http://www.w3.org/2000/svg">
<g clip-path="url(#clip0_17_1110)">
<path fill-rule="evenodd" clip-rule="evenodd" d="M58.6785 0L87.6502 16.5981V49.764L73.4093 57.9111V48.7609L79.6263 45.1737V21.1885L58.6785 9.18066L37.7306 21.1885V45.1737L58.2803 56.9383C58.2803 48.8217 58.2803 40.7658 58.2803 32.6795L73.8993 23.6812V31.3723L65.8448 36.0235V40.2794L73.8993 35.6283V43.3193L65.8448 47.9705C65.8448 52.7432 65.8448 57.4855 65.8448 62.2583L58.6785 66.3622L29.7374 49.764V16.5981L58.6785 0Z" fill="#ED1C24"/>
<path fill-rule="evenodd" clip-rule="evenodd" d="M92.5808 88.5842C92.5808 87.3075 92.5808 86.0003 92.5808 84.6019H80.2694V88.5842H92.5808Z" fill="#ED1C24"/>
<path fill-rule="evenodd" clip-rule="evenodd" d="M100.39 87.1251C100.39 82.7475 100.421 82.7171 106.546 82.7171C112.641 82.7171 112.671 82.7475 112.671 87.1251C112.671 91.4722 112.641 91.5026 106.515 91.5026C100.421 91.5026 100.39 91.5026 100.39 87.1251ZM75.0018 87.1251C75.0018 82.8387 75.0324 82.7171 80.7594 82.7171H92.6115C92.6115 81.258 92.6115 79.7988 92.6115 78.2788H84.8939C83.822 78.2484 82.5357 78.2484 81.1575 78.2484C69.918 78.2484 69.673 78.8564 69.673 87.1251C69.673 95.3938 69.8874 96.0017 81.1575 96.0017C91.2946 96.0017 92.489 95.4546 92.6421 89.2835H87.252C87.0683 91.5026 86.0576 91.5026 81.1575 91.5026C75.0324 91.5026 75.0018 91.5026 75.0018 87.1251ZM112.304 102.963L113.069 102.902C113.1 103.206 113.192 103.45 113.314 103.632C113.437 103.814 113.651 103.966 113.927 104.088C114.202 104.21 114.509 104.27 114.846 104.27C115.152 104.27 115.427 104.21 115.672 104.118C115.917 104.027 116.101 103.906 116.224 103.754C116.316 103.571 116.407 103.419 116.407 103.237C116.407 103.054 116.346 102.872 116.224 102.75C116.101 102.598 115.917 102.477 115.672 102.386C115.489 102.325 115.152 102.234 114.601 102.082C114.019 101.96 113.651 101.838 113.406 101.717C113.131 101.565 112.916 101.382 112.763 101.139C112.61 100.926 112.579 100.683 112.579 100.379C112.579 100.075 112.641 99.8017 112.824 99.5585C113.008 99.2849 113.253 99.1025 113.59 98.9505C113.927 98.7985 114.294 98.7681 114.692 98.7681C115.152 98.7681 115.519 98.8289 115.887 98.9505C116.224 99.1025 116.499 99.3153 116.683 99.5889C116.867 99.8929 116.989 100.197 116.989 100.531L116.193 100.592C116.162 100.227 116.009 99.9233 115.764 99.7409C115.55 99.5585 115.182 99.4369 114.692 99.4369C114.233 99.4369 113.866 99.5281 113.621 99.7105C113.406 99.8929 113.314 100.106 113.314 100.349C113.314 100.562 113.376 100.744 113.529 100.896C113.712 101.048 114.111 101.17 114.754 101.322C115.397 101.474 115.826 101.626 116.071 101.717C116.407 101.899 116.683 102.082 116.867 102.325C117.051 102.568 117.112 102.872 117.112 103.176C117.112 103.48 117.02 103.814 116.836 104.088C116.652 104.392 116.377 104.605 116.009 104.757C115.672 104.939 115.305 105 114.846 105C114.294 105 113.835 104.939 113.467 104.757C113.1 104.605 112.794 104.362 112.61 104.058C112.426 103.723 112.334 103.358 112.304 102.963ZM104.709 104.878V98.8593H105.903L107.342 103.115C107.465 103.51 107.557 103.814 107.649 103.997C107.71 103.784 107.832 103.45 107.955 103.054L109.425 98.8593H110.497V104.878H109.731V99.8321L107.985 104.878H107.25L105.505 99.7409V104.878H104.709ZM98.2772 104.878V98.8593H102.657V99.5585H99.0734V101.382H102.442V102.082H99.0734V104.149H102.81V104.848H98.2772V104.878ZM93.8365 104.878V99.5585H91.8458V98.8593H96.654V99.5585H94.6328V104.878H93.8365ZM85.5982 102.963L86.3639 102.902C86.3945 103.206 86.4557 103.45 86.6089 103.632C86.7314 103.814 86.9151 103.966 87.1908 104.088C87.497 104.21 87.7726 104.27 88.1401 104.27C88.4464 104.27 88.722 104.21 88.967 104.118C89.212 104.027 89.3958 103.906 89.4877 103.754C89.6102 103.571 89.6714 103.419 89.6714 103.237C89.6714 103.054 89.6102 102.872 89.5183 102.75C89.3958 102.598 89.212 102.477 88.9364 102.386C88.7833 102.325 88.4158 102.234 87.8645 102.082C87.2826 101.96 86.9151 101.838 86.6701 101.717C86.3639 101.565 86.1801 101.382 86.027 101.139C85.8739 100.926 85.8126 100.683 85.8126 100.379C85.8126 100.075 85.9045 99.8017 86.0882 99.5585C86.272 99.2849 86.517 99.1025 86.8539 98.9505C87.1601 98.7985 87.5583 98.7681 87.9564 98.7681C88.4158 98.7681 88.7833 98.8289 89.1508 98.9505C89.4877 99.1025 89.7633 99.3153 89.9471 99.5889C90.1308 99.8929 90.2533 100.197 90.2533 100.531L89.4877 100.592C89.4264 100.227 89.3039 99.9233 89.0589 99.7409C88.8139 99.5585 88.477 99.4369 87.987 99.4369C87.5276 99.4369 87.1601 99.5281 86.9151 99.7105C86.7007 99.8929 86.6089 100.106 86.6089 100.349C86.6089 100.562 86.6701 100.744 86.8233 100.896C86.9764 101.048 87.4051 101.17 88.0176 101.322C88.6914 101.474 89.1202 101.626 89.3652 101.717C89.702 101.899 89.9777 102.082 90.1308 102.325C90.3146 102.568 90.4064 102.872 90.4064 103.176C90.4064 103.48 90.3146 103.814 90.1002 104.088C89.9164 104.392 89.6714 104.605 89.3039 104.757C88.967 104.939 88.5689 105 88.1401 105C87.5583 105 87.1295 104.939 86.762 104.757C86.3945 104.605 86.0882 104.362 85.8739 104.058C85.7207 103.723 85.5982 103.358 85.5982 102.963ZM81.1269 104.878V102.294L78.7688 98.8289H79.7488L80.9432 100.653C81.1575 100.987 81.3719 101.352 81.5557 101.656C81.7394 101.352 81.9538 100.987 82.2294 100.592L83.4238 98.8289H84.3426L81.9232 102.294V104.878H81.1269ZM72.6743 102.963L73.4399 102.902C73.4705 103.206 73.5624 103.45 73.6849 103.632C73.8074 103.814 74.0218 103.966 74.2974 104.088C74.5731 104.21 74.8793 104.27 75.2162 104.27C75.5225 104.27 75.7981 104.21 76.0431 104.118C76.2881 104.027 76.4718 103.906 76.5943 103.754C76.6862 103.571 76.7475 103.419 76.7475 103.237C76.7475 103.054 76.6862 102.872 76.5943 102.75C76.4718 102.598 76.2881 102.477 76.0431 102.386C75.8593 102.325 75.4918 102.234 74.9712 102.082C74.3893 101.96 74.0218 101.838 73.7768 101.717C73.5012 101.565 73.2868 101.382 73.1337 101.139C72.9805 100.926 72.9499 100.683 72.9499 100.379C72.9499 100.075 73.0112 99.8017 73.1949 99.5585C73.3787 99.2849 73.6237 99.1025 73.9605 98.9505C74.2668 98.7985 74.6649 98.7681 75.0631 98.7681C75.5225 98.7681 75.89 98.8289 76.2575 98.9505C76.5943 99.1025 76.87 99.3153 77.0537 99.5889C77.2375 99.8929 77.36 100.197 77.36 100.531L76.5943 100.592C76.5637 100.227 76.4106 99.9233 76.1656 99.7409C75.9512 99.5585 75.5837 99.4369 75.0937 99.4369C74.6343 99.4369 74.2668 99.5281 74.0218 99.7105C73.8074 99.8929 73.7155 100.106 73.7155 100.349C73.7155 100.562 73.7768 100.744 73.9299 100.896C74.1137 101.048 74.5118 101.17 75.1243 101.322C75.7981 101.474 76.2268 101.626 76.4718 101.717C76.8087 101.899 77.0844 102.082 77.2681 102.325C77.4212 102.568 77.5131 102.872 77.5131 103.176C77.5131 103.48 77.4212 103.814 77.2375 104.088C77.0537 104.392 76.7781 104.605 76.4106 104.757C76.0737 104.939 75.6756 105 75.2468 105C74.6956 105 74.2362 104.939 73.8687 104.757C73.5012 104.605 73.1949 104.362 73.0112 104.058C72.7968 103.723 72.7049 103.358 72.6743 102.963ZM63.701 104.878V98.8593H66.3961C66.9473 98.8593 67.3454 98.9201 67.6211 99.0113C67.8967 99.1329 68.1111 99.3153 68.2948 99.5889C68.4786 99.8625 68.5398 100.166 68.5398 100.501C68.5398 100.926 68.4173 101.291 68.1417 101.565C67.8354 101.869 67.4373 102.021 66.8248 102.142C67.0392 102.234 67.1923 102.325 67.3148 102.446C67.5292 102.659 67.7742 102.933 67.9886 103.267L69.0605 104.909H68.0498L67.2229 103.632C67.0086 103.298 66.7942 102.994 66.6411 102.811C66.4879 102.629 66.3348 102.477 66.2123 102.386C66.0898 102.325 65.9673 102.264 65.8448 102.234C65.7835 102.203 65.6304 102.173 65.3854 102.173H64.436V104.878H63.701ZM64.4973 101.504H66.2123C66.5798 101.504 66.8861 101.474 67.0698 101.413C67.2842 101.322 67.4373 101.23 67.5292 101.048C67.6517 100.866 67.713 100.714 67.713 100.501C67.713 100.197 67.6211 99.9841 67.4067 99.8017C67.2229 99.6193 66.8861 99.5281 66.4267 99.5281H64.4973V101.504ZM57.2697 104.878V98.8593H61.6491V99.5585H58.0659V101.382H61.4347V102.082H58.0659V104.149H61.8022V104.848H57.2697V104.878ZM50.5321 102.963L51.2671 102.902C51.3283 103.206 51.3896 103.45 51.5121 103.632C51.6652 103.814 51.8489 103.966 52.1246 104.088C52.4002 104.21 52.7065 104.27 53.074 104.27C53.3802 104.27 53.6559 104.21 53.9009 104.118C54.1152 104.027 54.299 103.906 54.4215 103.754C54.544 103.571 54.6052 103.419 54.6052 103.237C54.6052 103.054 54.544 102.872 54.4215 102.75C54.3296 102.598 54.1152 102.477 53.8702 102.386C53.6865 102.325 53.3496 102.234 52.7983 102.082C52.2471 101.96 51.8489 101.838 51.6346 101.717C51.3283 101.565 51.1139 101.382 50.9914 101.139C50.8383 100.926 50.7771 100.683 50.7771 100.379C50.7771 100.075 50.8383 99.8017 51.0527 99.5585C51.2364 99.2849 51.4814 99.1025 51.7877 98.9505C52.1246 98.7985 52.4921 98.7681 52.8902 98.7681C53.3496 98.7681 53.7477 98.8289 54.0846 98.9505C54.4215 99.1025 54.6665 99.3153 54.8809 99.5889C55.0646 99.8929 55.1565 100.197 55.1871 100.531L54.4215 100.592C54.3602 100.227 54.2377 99.9233 53.9927 99.7409C53.7477 99.5585 53.4109 99.4369 52.9208 99.4369C52.4308 99.4369 52.094 99.5281 51.8489 99.7105C51.6346 99.8929 51.5121 100.106 51.5121 100.349C51.5121 100.562 51.6039 100.744 51.7571 100.896C51.9102 101.048 52.3083 101.17 52.9515 101.322C53.5946 101.474 54.054 101.626 54.2684 101.717C54.6359 101.899 54.8809 102.082 55.0646 102.325C55.2484 102.568 55.3096 102.872 55.3096 103.176C55.3096 103.48 55.2484 103.814 55.034 104.088C54.8502 104.392 54.5746 104.605 54.2377 104.757C53.9009 104.939 53.5027 105 53.0433 105C52.4921 105 52.0327 104.939 51.6958 104.757C51.2977 104.605 51.0221 104.362 50.8077 104.058C50.6546 103.723 50.5321 103.358 50.5321 102.963ZM43.1513 101.96C43.1513 100.957 43.4269 100.166 43.9782 99.6193C44.5295 99.0417 45.2032 98.7681 46.0607 98.7681C46.6426 98.7681 47.1326 98.9201 47.5614 99.1937C48.0208 99.4369 48.3883 99.8321 48.6026 100.288C48.8476 100.744 48.9395 101.291 48.9395 101.899C48.9395 102.507 48.817 103.054 48.572 103.541C48.327 104.027 47.9901 104.362 47.5308 104.635C47.0714 104.878 46.5814 105 46.0607 105C45.4788 105 44.9888 104.848 44.5295 104.574C44.1007 104.301 43.7332 103.906 43.4882 103.45C43.2738 102.963 43.1513 102.477 43.1513 101.96ZM43.9782 101.96C43.9782 102.69 44.162 103.267 44.5601 103.662C44.9582 104.088 45.4482 104.301 46.0301 104.301C46.612 104.301 47.102 104.088 47.5001 103.662C47.8983 103.237 48.082 102.629 48.082 101.869C48.082 101.382 47.9901 100.926 47.837 100.562C47.6533 100.197 47.4083 99.9233 47.102 99.7409C46.7957 99.5281 46.3976 99.4369 46.0301 99.4369C45.4482 99.4369 44.9582 99.6193 44.5601 100.014C44.1926 100.41 43.9782 101.048 43.9782 101.96ZM37.8837 104.878V98.8593H38.68V104.179H41.6507V104.878H37.8837ZM35.3112 102.75L36.1074 102.963C35.9543 103.602 35.6481 104.118 35.2193 104.453C34.7599 104.787 34.2393 104.97 33.6268 104.97C32.953 104.97 32.4324 104.818 32.0343 104.574C31.6055 104.301 31.3299 103.906 31.0849 103.419C30.9011 102.902 30.7786 102.355 30.7786 101.808C30.7786 101.17 30.9011 100.622 31.1461 100.166C31.3911 99.7105 31.728 99.3457 32.1874 99.1025C32.6161 98.8593 33.1062 98.7681 33.6574 98.7681C34.2699 98.7681 34.7599 98.9201 35.1887 99.2241C35.6174 99.5281 35.8931 99.9537 36.0462 100.531L35.2499 100.714C35.1274 100.258 34.9131 99.9537 34.6374 99.7713C34.3924 99.5585 34.0555 99.4673 33.6268 99.4673C33.1674 99.4673 32.7999 99.5889 32.463 99.8017C32.1568 100.014 31.9424 100.318 31.7893 100.683C31.6668 101.078 31.6055 101.443 31.6055 101.869C31.6055 102.386 31.6668 102.811 31.8199 103.176C31.973 103.571 32.1874 103.875 32.5243 104.027C32.8305 104.21 33.198 104.331 33.5655 104.331C34.0249 104.331 34.3924 104.21 34.6987 103.936C34.9743 103.662 35.1887 103.267 35.3112 102.75ZM21.7135 104.878V98.8593H24.4085C24.9598 98.8593 25.3579 98.9201 25.6335 99.0113C25.9398 99.1329 26.1542 99.3153 26.3379 99.5889C26.491 99.8625 26.5829 100.166 26.5829 100.501C26.5829 100.926 26.4298 101.291 26.1542 101.565C25.8785 101.869 25.4498 102.021 24.8679 102.142C25.0516 102.234 25.2354 102.325 25.3273 102.446C25.5723 102.659 25.7867 102.933 26.001 103.267L27.0729 104.909H26.0623L25.266 103.632C25.021 103.298 24.8066 102.994 24.6841 102.811C24.531 102.629 24.3779 102.477 24.286 102.386C24.1635 102.325 24.041 102.264 23.9185 102.234C23.8266 102.203 23.6735 102.173 23.4591 102.173H22.5097V104.878H21.7135ZM22.5097 101.504H24.2248C24.5923 101.504 24.8679 101.474 25.0823 101.413C25.266 101.322 25.4192 101.23 25.5417 101.048C25.6335 100.866 25.6948 100.714 25.6948 100.501C25.6948 100.197 25.6029 99.9841 25.3885 99.8017C25.1742 99.6193 24.8373 99.5281 24.4085 99.5281H22.4791V101.504H22.5097ZM14.0571 101.96C14.0571 100.957 14.3327 100.166 14.884 99.6193C15.4352 99.0417 16.1396 98.7681 16.9665 98.7681C17.5484 98.7681 18.0384 98.9201 18.4978 99.1937C18.9572 99.4369 19.2941 99.8321 19.5084 100.288C19.7534 100.744 19.8759 101.291 19.8759 101.899C19.8759 102.507 19.7534 103.054 19.4778 103.541C19.2328 104.027 18.8959 104.362 18.4365 104.635C17.9772 104.878 17.4872 105 16.9665 105C16.3846 105 15.8946 104.848 15.4352 104.574C15.0065 104.301 14.639 103.906 14.4246 103.45C14.1796 102.963 14.0571 102.477 14.0571 101.96ZM14.9146 101.96C14.9146 102.69 15.0984 103.267 15.4965 103.662C15.8946 104.088 16.3846 104.301 16.9665 104.301C17.5484 104.301 18.0384 104.088 18.4365 103.662C18.8347 103.237 19.0184 102.629 19.0184 101.869C19.0184 101.382 18.9572 100.926 18.7734 100.562C18.5897 100.197 18.3447 99.9233 18.0384 99.7409C17.7322 99.5281 17.3647 99.4369 16.9665 99.4369C16.3846 99.4369 15.8946 99.6193 15.4965 100.014C15.0984 100.41 14.9146 101.048 14.9146 101.96ZM6.67636 101.96C6.67636 100.957 6.95199 100.166 7.50324 99.6193C8.0545 99.0417 8.72826 98.7681 9.58578 98.7681C10.137 98.7681 10.6577 98.9201 11.0864 99.1937C11.5458 99.4369 11.8827 99.8321 12.1277 100.288C12.3421 100.744 12.4646 101.291 12.4646 101.899C12.4646 102.507 12.3421 103.054 12.0971 103.541C11.8521 104.027 11.5152 104.362 11.0252 104.635C10.5658 104.878 10.0758 105 9.55515 105C8.97327 105 8.48326 104.848 8.02388 104.574C7.5645 104.301 7.19699 103.906 6.98261 103.45C6.79886 102.963 6.67636 102.477 6.67636 101.96ZM7.53387 101.96C7.53387 102.69 7.71762 103.267 8.11575 103.662C8.51389 104.088 9.00389 104.301 9.58578 104.301C10.1983 104.301 10.6883 104.088 11.0864 103.662C11.4846 103.237 11.6683 102.629 11.6683 101.869C11.6683 101.382 11.5764 100.926 11.3927 100.562C11.2396 100.197 10.9945 99.9233 10.6883 99.7409C10.382 99.5281 9.98391 99.4369 9.6164 99.4369C9.03452 99.4369 8.54451 99.6193 8.14638 100.014C7.71762 100.41 7.53387 101.048 7.53387 101.96ZM0.0306255 104.878V98.8593H2.11316C2.57254 98.8593 2.94005 98.8897 3.18505 98.9201C3.52193 98.9809 3.82819 99.1329 4.07319 99.3457C4.37944 99.6193 4.65507 99.9537 4.77758 100.379C4.96133 100.805 5.02258 101.261 5.02258 101.808C5.02258 102.264 4.96133 102.659 4.83883 103.024C4.74695 103.358 4.59382 103.662 4.41007 103.906C4.25694 104.118 4.07319 104.331 3.85881 104.453C3.67506 104.574 3.39943 104.696 3.15443 104.757C2.84817 104.818 2.54192 104.878 2.17441 104.878H0.0306255ZM0.826888 104.179H2.14378C2.54192 104.179 2.84817 104.118 3.09317 104.058C3.30755 103.997 3.49131 103.875 3.64443 103.754C3.82819 103.571 3.98131 103.298 4.10382 102.994C4.19569 102.69 4.25694 102.294 4.25694 101.838C4.25694 101.2 4.16507 100.714 3.95069 100.379C3.73631 100.045 3.49131 99.8017 3.18505 99.6801C2.97067 99.5889 2.60317 99.5585 2.14378 99.5585H0.826888V104.179ZM0 95.7586H5.35946V90.4082H17.8547V85.9395H5.35946V82.9907H18.5897V78.522H0V95.7586ZM31.2992 82.3524L34.1474 88.4019H27.5936L30.4724 82.3524H31.2992ZM26.3379 78.522L17.7015 95.7586H23.9798L25.6335 92.8706H36.2299L37.8837 95.7586H44.1007L35.4337 78.522H26.3379ZM51.2058 82.9603H59.7809C60.8835 82.9603 61.4041 83.3859 61.4041 84.7235C61.4041 86.0307 60.8835 86.4259 59.7809 86.4259H51.2058V82.9603ZM45.8464 78.522V95.7586H51.2058V90.925H59.6584C61.006 90.925 61.4041 91.8978 61.4041 92.6578V95.7586H66.7329V91.8978C66.7329 89.6786 66.1817 89.1922 64.3441 88.4019C66.0592 87.7331 66.7329 86.4563 66.7329 83.5379C66.7329 79.7076 65.0792 78.5524 61.4041 78.5524H45.8464V78.522ZM118 87.1251C118 78.8868 117.694 78.2484 106.515 78.2484C95.2759 78.2484 95.0309 78.8564 95.0309 87.1251C95.0309 95.3938 95.2453 96.0017 106.515 96.0017C117.694 96.0017 118 95.3634 118 87.1251Z" fill="#808285"/>
</g>
<defs>
<clipPath id="clip0_17_1110">
<rect width="118" height="105" fill="white"/>
</clipPath>
</defs>
</svg>
