<svg width="16" height="13" viewBox="0 0 16 13" fill="none" xmlns="http://www.w3.org/2000/svg">
<path d="M1.5 0.5C0.6875 0.5 0 1.1875 0 2V11C0 11.8438 0.6875 12.5 1.5 12.5H14.5C15.3438 12.5 16 11.8438 16 11V2C16 1.1875 15.3438 0.5 14.5 0.5H1.5ZM14.5 1.5C14.7812 1.5 15 1.75 15 2V3.3125C14.3438 3.875 13.3438 4.6875 10.3125 7.09375C9.78125 7.53125 8.75 8.53125 8 8.5C7.28125 8.53125 6.25 7.53125 5.71875 7.09375C2.6875 4.6875 1.6875 3.875 1 3.3125V2C1 1.75 1.25 1.5 1.5 1.5H14.5ZM1.5 11.5C1.25 11.5 1 11.2812 1 11V4.59375C1.71875 5.1875 2.84375 6.09375 5.09375 7.875C5.75 8.40625 6.875 9.53125 8 9.5C9.15625 9.53125 10.2812 8.40625 10.9375 7.875C13.1875 6.09375 14.3125 5.1875 15 4.59375V11C15 11.2812 14.7812 11.5 14.5 11.5H1.5Z" fill="#ED1C24"/>
</svg>
