<svg width="17" height="17" viewBox="0 0 17 17" fill="none" xmlns="http://www.w3.org/2000/svg">
<path d="M0.59375 1.28125C0.25 1.375 0 1.65625 0 2C0 10.0312 6.5 16.5 14.5 16.5C14.875 16.5 15.1562 16.2812 15.25 15.9375L16 12.6875C16.0625 12.3438 15.9062 11.9688 15.5625 11.8125L12.0625 10.3125C11.75 10.1875 11.4062 10.2812 11.1875 10.5312L9.625 12.4375C7.1875 11.2812 5.21875 9.28125 4.09375 6.90625L6 5.34375C6.25 5.125 6.34375 4.78125 6.21875 4.46875L4.71875 0.96875C4.5625 0.625 4.1875 0.4375 3.84375 0.53125L0.59375 1.28125Z" fill="#ED1C24"/>
</svg>
