<svg width="13" height="15" viewBox="0 0 13 15" fill="none" xmlns="http://www.w3.org/2000/svg">
<path d="M9.30859 8.5625C11.332 8.5625 13 10.2305 13 12.2539V12.9375C13 13.6758 12.3984 14.25 11.6875 14.25H2.0625C1.32422 14.25 0.75 13.6758 0.75 12.9375V12.2539C0.75 10.2305 2.39062 8.5625 4.41406 8.5625C5.20703 8.5625 5.5625 9 6.875 9C8.16016 9 8.51562 8.5625 9.30859 8.5625ZM11.6875 12.9375V12.2539C11.6875 10.9414 10.6211 9.875 9.30859 9.875C8.89844 9.875 8.26953 10.3125 6.875 10.3125C5.45312 10.3125 4.82422 9.875 4.41406 9.875C3.10156 9.875 2.0625 10.9414 2.0625 12.2539V12.9375H11.6875ZM6.875 8.125C4.6875 8.125 2.9375 6.375 2.9375 4.1875C2.9375 2.02734 4.6875 0.25 6.875 0.25C9.03516 0.25 10.8125 2.02734 10.8125 4.1875C10.8125 6.375 9.03516 8.125 6.875 8.125ZM6.875 1.5625C5.42578 1.5625 4.25 2.76562 4.25 4.1875C4.25 5.63672 5.42578 6.8125 6.875 6.8125C8.29688 6.8125 9.5 5.63672 9.5 4.1875C9.5 2.76562 8.29688 1.5625 6.875 1.5625Z" fill="#788094"/>
</svg>
