<svg width="15" height="14" viewBox="0 0 15 14" fill="none" xmlns="http://www.w3.org/2000/svg">
<path d="M14.0156 0.378906C14.5898 0.515625 15 1.03516 15 1.60938C15 8.33594 9.53125 13.75 2.83203 13.75C2.25781 13.75 1.73828 13.3672 1.60156 12.793L1.02734 10.2227C0.890625 9.62109 1.19141 9.01953 1.73828 8.77344L4.52734 7.59766C5.01953 7.37891 5.62109 7.51562 5.97656 7.95312L6.87891 9.04688C8.30078 8.25391 9.50391 7.07812 10.2695 5.65625L9.17578 4.75391C8.73828 4.39844 8.60156 3.79688 8.82031 3.30469L10.0234 0.515625C10.2422 -0.03125 10.8438 -0.332031 11.4453 -0.195312L14.0156 0.378906ZM2.88672 12.4375C8.82031 12.4102 13.6602 7.59766 13.6875 1.66406L11.1992 1.08984L10.0508 3.76953L11.9102 5.30078C10.625 8.00781 9.23047 9.40234 6.52344 10.6875L4.99219 8.82812L2.3125 9.97656L2.88672 12.4375Z" fill="#788094"/>
</svg>
