<svg width="15" height="15" viewBox="0 0 15 15" fill="none" xmlns="http://www.w3.org/2000/svg">
<path d="M14.0156 0.878906C14.5898 1.01562 15 1.53516 15 2.10938C15 8.83594 9.53125 14.25 2.83203 14.25C2.25781 14.25 1.73828 13.8672 1.60156 13.293L1.02734 10.7227C0.890625 10.1211 1.19141 9.51953 1.73828 9.27344L4.52734 8.09766C5.01953 7.87891 5.62109 8.01562 5.97656 8.45312L6.87891 9.54688C8.30078 8.75391 9.50391 7.57812 10.2695 6.15625L9.17578 5.25391C8.73828 4.89844 8.60156 4.29688 8.82031 3.80469L10.0234 1.01562C10.2422 0.46875 10.8438 0.167969 11.4453 0.304688L14.0156 0.878906ZM2.88672 12.9375C8.82031 12.9102 13.6602 8.09766 13.6875 2.16406L11.1992 1.58984L10.0508 4.26953L11.9102 5.80078C10.625 8.50781 9.23047 9.90234 6.52344 11.1875L4.99219 9.32812L2.3125 10.4766L2.88672 12.9375Z" fill="#788094"/>
</svg>
